# xmcd CD database file
#
# Track frame offsets:
#	150
#	36473
#	49030
#	70803
#	92494
#	112045
#	131677
#	144604
#	160357
#	173939
#	209078
#
# Disc length: 2991 seconds
#
# Revision: 0
# Processed by: cddbd v1.5.2PL0 Copyright (c) Steve Scherf et al.
# Submitted via: CDex 1.51
#
DISCID=a80bad0b
DTITLE=Steven and Renata Ash - Light on the Skin
DYEAR=2006
DGENRE=New Age
TTITLE0=Sacred Directions
TTITLE1=Harmonic Concordance
TTITLE2=Light on the Skin
TTITLE3=Quan Yin
TTITLE4=Hail Mary
TTITLE5=I feel this Hunger
TTITLE6=Aramaic Prayer
TTITLE7=I'm Loving My Loved One
TTITLE8=Camelot - David Ash
TTITLE9=Still the Waters
TTITLE10=Universal Greetings
EXTD=YEAR: 2006
EXTT0=
EXTT1=
EXTT2=
EXTT3=
EXTT4=
EXTT5=
EXTT6=
EXTT7=
EXTT8=
EXTT9=
EXTT10=
PLAYORDER=
